<mxfile host="app.diagrams.net" modified="2023-07-19T09:14:02.481Z" agent="Mozilla/5.0 (Windows NT 10.0; Win64; x64) AppleWebKit/537.36 (KHTML, like Gecko) Chrome/114.0.0.0 Safari/537.36" version="21.6.3" etag="4M8XSvuGIc5GjHtPIshJ" type="github">
  <diagram name="Page-1" id="8aDO3QDkk0pC0qGjHfx7">
    <mxGraphModel>
      <root>
        <mxCell id="0" />
        <mxCell id="1" parent="0" />
      </root>
    </mxGraphModel>
  </diagram>
</mxfile>
